<svg width="650" height="512" viewBox="0 0 650 512" fill="none" xmlns="http://www.w3.org/2000/svg">
<path d="M327.279 391.57C423.165 391.57 500.897 313.838 500.897 217.952C500.897 122.066 423.165 44.3344 327.279 44.3344C231.393 44.3344 153.661 122.066 153.661 217.952C153.661 313.838 231.393 391.57 327.279 391.57Z" fill="#DBE8EC"/>
<path d="M564.18 245.782V225.616C564.18 221.77 562.652 218.082 559.933 215.363C557.214 212.644 553.526 211.117 549.681 211.117H498.503C494.658 211.117 490.97 209.589 488.251 206.87C485.532 204.151 484.004 200.463 484.004 196.617V176.451C484.004 172.606 485.532 168.918 488.251 166.199C490.97 163.48 494.658 161.952 498.503 161.952H500.119C502.023 161.952 503.909 161.577 505.668 160.848C507.427 160.12 509.025 159.052 510.372 157.705C511.718 156.359 512.786 154.761 513.515 153.002C514.243 151.242 514.619 149.357 514.619 147.453V127.287C514.619 125.383 514.243 123.498 513.515 121.738C512.786 119.979 511.718 118.381 510.372 117.034C509.025 115.688 507.427 114.62 505.668 113.891C503.909 113.163 502.023 112.788 500.119 112.788L163.498 112.788C159.653 112.788 155.965 114.315 153.246 117.034C150.527 119.753 148.999 123.441 148.999 127.287V147.453C148.999 149.357 149.374 151.242 150.103 153.001C150.831 154.76 151.899 156.359 153.246 157.705C154.592 159.052 156.191 160.12 157.95 160.848C159.709 161.577 161.594 161.952 163.498 161.952C167.344 161.952 171.032 163.48 173.751 166.199C176.47 168.918 177.998 172.606 177.998 176.451V196.617C177.998 198.521 177.623 200.407 176.894 202.166C176.165 203.925 175.097 205.523 173.751 206.87C172.404 208.216 170.806 209.284 169.047 210.013C167.288 210.741 165.402 211.116 163.498 211.116H107.428C103.583 211.116 99.8949 212.644 97.1757 215.363C94.4566 218.082 92.929 221.77 92.929 225.616V245.781C92.929 249.627 94.4566 253.315 97.1757 256.034C99.8949 258.753 103.583 260.281 107.428 260.281H129.429C133.275 260.281 136.963 261.808 139.682 264.528C142.401 267.247 143.929 270.935 143.929 274.78V294.946C143.929 298.791 142.401 302.479 139.682 305.199C136.963 307.918 133.275 309.445 129.429 309.445H129.376C127.472 309.445 125.587 309.82 123.827 310.549C122.068 311.278 120.47 312.346 119.124 313.692C117.777 315.038 116.709 316.637 115.981 318.396C115.252 320.155 114.877 322.041 114.877 323.945V344.11C114.877 347.956 116.404 351.644 119.124 354.363C121.843 357.082 125.531 358.61 129.376 358.61H132.559C136.405 358.61 140.093 360.137 142.812 362.856C145.531 365.576 147.058 369.263 147.058 373.109V393.275C147.058 395.179 146.683 397.064 145.955 398.824C145.226 400.583 144.158 402.181 142.812 403.527C141.465 404.874 139.867 405.942 138.108 406.67C136.349 407.399 134.463 407.774 132.559 407.774H100.319C98.4151 407.774 96.5297 408.149 94.7705 408.878C93.0114 409.607 91.413 410.675 90.0666 412.021C88.7202 413.367 87.6522 414.966 86.9236 416.725C86.1949 418.484 85.8199 420.369 85.8199 422.273V442.439C85.8199 446.285 87.3475 449.973 90.0666 452.692C92.7858 455.411 96.4737 456.939 100.319 456.939L507.903 456.939C509.808 456.939 511.693 456.564 513.452 455.835C515.211 455.106 516.81 454.038 518.156 452.692C519.502 451.346 520.57 449.747 521.299 447.988C522.028 446.229 522.403 444.344 522.403 442.439V422.274C522.403 420.37 522.028 418.484 521.299 416.725C520.57 414.966 519.502 413.367 518.156 412.021C516.81 410.675 515.211 409.607 513.452 408.878C511.693 408.149 509.808 407.774 507.903 407.774H495.332C493.428 407.774 491.542 407.399 489.783 406.671C488.024 405.942 486.426 404.874 485.079 403.528C483.733 402.181 482.665 400.583 481.936 398.824C481.208 397.065 480.833 395.179 480.833 393.275V373.109C480.833 371.205 481.208 369.319 481.936 367.56C482.665 365.801 483.733 364.203 485.079 362.856C486.426 361.51 488.024 360.442 489.783 359.713C491.542 358.985 493.428 358.61 495.332 358.61H524.974C528.82 358.61 532.508 357.082 535.227 354.363C537.946 351.644 539.474 347.956 539.474 344.111V323.945C539.474 320.099 537.946 316.411 535.227 313.692C532.508 310.973 528.82 309.445 524.974 309.445H515.982C512.137 309.445 508.449 307.918 505.73 305.199C503.011 302.48 501.483 298.792 501.483 294.946V274.78C501.483 270.935 503.011 267.247 505.73 264.528C508.449 261.809 512.137 260.281 515.982 260.281H549.681C551.585 260.281 553.47 259.906 555.229 259.177C556.989 258.449 558.587 257.381 559.933 256.034C561.28 254.688 562.348 253.089 563.076 251.33C563.805 249.571 564.18 247.686 564.18 245.782Z" fill="#DBE8EC"/>
<path d="M263.789 261.065H294.11" stroke="#EE781D" stroke-width="3" stroke-miterlimit="10"/>
<path d="M263.789 269.804H294.11" stroke="#EE781D" stroke-width="3" stroke-miterlimit="10"/>
<path d="M263.789 278.543H294.11" stroke="#EE781D" stroke-width="3" stroke-miterlimit="10"/>
<path d="M207.224 110.193H237.545" stroke="#B9D4DB" stroke-width="3" stroke-miterlimit="10" stroke-linecap="round"/>
<path d="M207.224 118.932H237.545" stroke="#B9D4DB" stroke-width="3" stroke-miterlimit="10" stroke-linecap="round"/>
<path d="M207.224 127.671H237.545" stroke="#B9D4DB" stroke-width="3" stroke-miterlimit="10" stroke-linecap="round"/>
<path d="M480.243 250.374H510.564" stroke="#B9D4DB" stroke-width="3" stroke-miterlimit="10" stroke-linecap="round"/>
<path d="M480.243 259.113H510.564" stroke="#B9D4DB" stroke-width="3" stroke-miterlimit="10" stroke-linecap="round"/>
<path d="M480.243 267.852H510.564" stroke="#B9D4DB" stroke-width="3" stroke-miterlimit="10" stroke-linecap="round"/>
<path d="M165.278 382.831H195.598" stroke="#B9D4DB" stroke-width="3" stroke-miterlimit="10" stroke-linecap="round"/>
<path d="M165.278 391.57H195.598" stroke="#B9D4DB" stroke-width="3" stroke-miterlimit="10" stroke-linecap="round"/>
<path d="M165.278 400.309H195.598" stroke="#B9D4DB" stroke-width="3" stroke-miterlimit="10" stroke-linecap="round"/>
<path d="M169.788 263.016C178.304 263.016 185.208 256.112 185.208 247.596C185.208 239.08 178.304 232.176 169.788 232.176C161.272 232.176 154.368 239.08 154.368 247.596C154.368 256.112 161.272 263.016 169.788 263.016Z" fill="#B9D4DB"/>
<path d="M173.65 224.42C178.086 224.42 181.682 220.824 181.682 216.388C181.682 211.952 178.086 208.356 173.65 208.356C169.214 208.356 165.618 211.952 165.618 216.388C165.618 220.824 169.214 224.42 173.65 224.42Z" fill="#B9D4DB"/>
<path d="M201.919 221.876C204.478 221.876 206.552 219.802 206.552 217.243C206.552 214.684 204.478 212.61 201.919 212.61C199.361 212.61 197.286 214.684 197.286 217.243C197.286 219.802 199.361 221.876 201.919 221.876Z" fill="#B9D4DB"/>
<path d="M204.669 254.059C210.803 254.059 215.775 249.087 215.775 242.953C215.775 236.819 210.803 231.846 204.669 231.846C198.535 231.846 193.562 236.819 193.562 242.953C193.562 249.087 198.535 254.059 204.669 254.059Z" fill="#B9D4DB"/>
<path d="M465.61 434.075C474.127 434.075 481.03 427.172 481.03 418.656C481.03 410.139 474.127 403.236 465.61 403.236C457.094 403.236 450.191 410.139 450.191 418.656C450.191 427.172 457.094 434.075 465.61 434.075Z" fill="#B9D4DB"/>
<path d="M444.047 403.8C448.483 403.8 452.079 400.204 452.079 395.768C452.079 391.332 448.483 387.736 444.047 387.736C439.611 387.736 436.015 391.332 436.015 395.768C436.015 400.204 439.611 403.8 444.047 403.8Z" fill="#B9D4DB"/>
<path d="M462.745 379.181C465.304 379.181 467.378 377.107 467.378 374.548C467.378 371.989 465.304 369.915 462.745 369.915C460.186 369.915 458.112 371.989 458.112 374.548C458.112 377.107 460.186 379.181 462.745 379.181Z" fill="#B9D4DB"/>
<path d="M484.294 399.943C490.428 399.943 495.4 394.971 495.4 388.837C495.4 382.703 490.428 377.73 484.294 377.73C478.16 377.73 473.187 382.703 473.187 388.837C473.187 394.971 478.16 399.943 484.294 399.943Z" fill="#B9D4DB"/>
<path d="M450.186 173.469C458.703 173.469 465.606 166.565 465.606 158.049C465.606 149.533 458.703 142.629 450.186 142.629C441.67 142.629 434.766 149.533 434.766 158.049C434.766 166.565 441.67 173.469 450.186 173.469Z" fill="#B9D4DB"/>
<path d="M422.386 143.193C426.822 143.193 430.418 139.597 430.418 135.161C430.418 130.725 426.822 127.129 422.386 127.129C417.95 127.129 414.354 130.725 414.354 135.161C414.354 139.597 417.95 143.193 422.386 143.193Z" fill="#B9D4DB"/>
<path d="M452.748 138.233C458.882 138.233 463.855 133.261 463.855 127.127C463.855 120.993 458.882 116.02 452.748 116.02C446.614 116.02 441.642 120.993 441.642 127.127C441.642 133.261 446.614 138.233 452.748 138.233Z" fill="#B9D4DB"/>
<path d="M277.181 368.443C285.697 368.443 292.601 361.539 292.601 353.023C292.601 344.507 285.697 337.603 277.181 337.603C268.665 337.603 261.761 344.507 261.761 353.023C261.761 361.539 268.665 368.443 277.181 368.443Z" fill="#EE781D"/>
<path d="M255.617 338.167C260.053 338.167 263.649 334.571 263.649 330.135C263.649 325.699 260.053 322.103 255.617 322.103C251.182 322.103 247.586 325.699 247.586 330.135C247.586 334.571 251.182 338.167 255.617 338.167Z" fill="#EE781D"/>
<path d="M274.315 313.548C276.874 313.548 278.948 311.474 278.948 308.915C278.948 306.357 276.874 304.282 274.315 304.282C271.757 304.282 269.682 306.357 269.682 308.915C269.682 311.474 271.757 313.548 274.315 313.548Z" fill="#EE781D"/>
<path d="M295.864 334.311C301.998 334.311 306.971 329.338 306.971 323.204C306.971 317.07 301.998 312.098 295.864 312.098C289.73 312.098 284.758 317.07 284.758 323.204C284.758 329.338 289.73 334.311 295.864 334.311Z" fill="#EE781D"/>
<path d="M315.217 153.879C346.745 109.452 366.318 69.1882 358.935 63.9484L350.475 57.945C343.091 52.705 311.547 84.473 280.019 128.901C248.491 173.328 228.918 213.591 236.302 218.831L244.762 224.835C252.146 230.074 283.689 198.307 315.217 153.879Z" fill="#E06714"/>
<path d="M306.758 147.875C338.285 103.447 357.858 63.1838 350.474 57.9439C343.091 52.7041 311.547 84.4721 280.019 128.9C248.491 173.327 228.918 213.591 236.302 218.83C243.686 224.07 275.23 192.302 306.758 147.875Z" fill="#EE781D"/>
<path d="M299.719 114.713C308.49 120.938 282.654 157.344 273.883 151.12C265.112 144.895 263.785 131.7 270.92 121.646C278.054 111.593 290.948 108.489 299.719 114.713Z" fill="#E06714"/>
<path d="M237.545 252.601L260.7 455.162H260.951C260.951 462.067 294.635 467.666 336.185 467.666C377.736 467.666 411.42 462.067 411.42 455.162H411.671L434.826 252.601H237.545Z" fill="#EE781D"/>
<path d="M336.185 268.995C390.663 268.995 434.826 261.656 434.826 252.602C434.826 243.548 390.663 236.208 336.185 236.208C281.708 236.208 237.545 243.548 237.545 252.602C237.545 261.656 281.708 268.995 336.185 268.995Z" fill="#E06714"/>
<path d="M341.193 298.096H336.764C335.659 298.096 334.764 298.992 334.764 300.096V443.233C334.764 444.338 335.659 445.233 336.764 445.233H341.193C342.297 445.233 343.193 444.338 343.193 443.233V300.096C343.193 298.992 342.297 298.096 341.193 298.096Z" fill="#E06714"/>
<path d="M383.921 445.429L378.593 444.692C377.742 444.575 377.1 443.089 377.158 441.375L381.942 300.792C382 299.077 382.737 297.783 383.587 297.9L388.916 298.637C389.766 298.755 390.409 300.24 390.35 301.955L385.567 442.538C385.509 444.252 384.772 445.547 383.921 445.429Z" fill="#E06714"/>
<path d="M290.967 445.429L296.296 444.692C297.146 444.575 297.788 443.089 297.73 441.375L292.947 300.792C292.889 299.077 292.152 297.783 291.301 297.9L285.973 298.637C285.122 298.755 284.48 300.24 284.538 301.955L289.321 442.538C289.38 444.252 290.117 445.547 290.967 445.429Z" fill="#E06714"/>
<path d="M379.498 226.67L372.558 250.199L312.568 232.505C312.249 232.411 311.951 232.255 311.693 232.046C311.434 231.836 311.219 231.578 311.059 231.286C310.9 230.994 310.8 230.673 310.765 230.342C310.73 230.011 310.76 229.677 310.854 229.357L338.93 134.171C339.024 133.852 339.18 133.554 339.389 133.295C339.598 133.037 339.856 132.821 340.149 132.662C340.441 132.503 340.762 132.403 341.093 132.368C341.423 132.333 341.758 132.363 342.077 132.457L423.263 156.403C423.582 156.497 423.88 156.653 424.138 156.862C424.397 157.071 424.612 157.33 424.772 157.622C424.931 157.914 425.031 158.235 425.066 158.566C425.101 158.897 425.071 159.231 424.977 159.551L403.124 233.638L379.498 226.67Z" fill="#F9AE2B"/>
<path d="M372.558 250.199L379.498 226.67L403.124 233.638L372.558 250.199Z" fill="#3086A3"/>
<path d="M377.318 162.575L347.42 153.757L343.395 167.405L373.292 176.224L377.318 162.575Z" fill="#3086A3"/>
<path d="M382.743 171.593L405.641 178.347" stroke="#3086A3" stroke-width="3" stroke-miterlimit="10"/>
<path d="M330.179 213.286L353.077 220.039" stroke="#3086A3" stroke-width="3" stroke-miterlimit="10"/>
<path d="M340.255 178.052L400.488 195.818" stroke="#3086A3" stroke-width="3" stroke-miterlimit="10"/>
<path d="M336.799 189.768L397.032 207.534" stroke="#3086A3" stroke-width="3" stroke-miterlimit="10"/>
<path d="M333.343 201.484L393.576 219.25" stroke="#3086A3" stroke-width="3" stroke-miterlimit="10"/>
</svg>
