<svg width="28" height="28" viewBox="0 0 28 28" fill="none" xmlns="http://www.w3.org/2000/svg">
<path d="M14.0001 2.33325C12.468 2.33325 10.9509 2.63502 9.53545 3.22132C8.11998 3.80763 6.83386 4.66699 5.75051 5.75034C3.56258 7.93826 2.33342 10.9057 2.33342 13.9999C2.32322 16.6939 3.25601 19.3065 4.97009 21.3849L2.63675 23.7183C2.47487 23.8823 2.36521 24.0906 2.32161 24.317C2.278 24.5433 2.30241 24.7775 2.39175 24.9899C2.48866 25.1998 2.64574 25.3762 2.84308 25.4967C3.04041 25.6172 3.26909 25.6763 3.50009 25.6666H14.0001C17.0943 25.6666 20.0617 24.4374 22.2497 22.2495C24.4376 20.0616 25.6668 17.0941 25.6668 13.9999C25.6668 10.9057 24.4376 7.93826 22.2497 5.75034C20.0617 3.56242 17.0943 2.33325 14.0001 2.33325V2.33325ZM14.0001 23.3333H6.31175L7.39676 22.2483C7.61405 22.0297 7.73601 21.734 7.73601 21.4258C7.73601 21.1175 7.61405 20.8218 7.39676 20.6033C5.8691 19.0773 4.91779 17.0689 4.70489 14.9202C4.492 12.7715 5.03069 10.6154 6.22919 8.81936C7.42769 7.0233 9.21184 5.69834 11.2777 5.07022C13.3435 4.4421 15.5633 4.54969 17.5587 5.37465C19.5541 6.19961 21.2018 7.69091 22.2209 9.59446C23.2401 11.498 23.5678 13.6961 23.1481 15.8141C22.7284 17.9321 21.5873 19.8391 19.9192 21.2102C18.2512 22.5813 16.1593 23.3316 14.0001 23.3333V23.3333ZM17.5001 12.8333H15.1668V10.4999C15.1668 10.1905 15.0438 9.89375 14.825 9.67496C14.6063 9.45617 14.3095 9.33325 14.0001 9.33325C13.6907 9.33325 13.3939 9.45617 13.1751 9.67496C12.9563 9.89375 12.8334 10.1905 12.8334 10.4999V12.8333H10.5001C10.1907 12.8333 9.89392 12.9562 9.67513 13.175C9.45634 13.3938 9.33342 13.6905 9.33342 13.9999C9.33342 14.3093 9.45634 14.6061 9.67513 14.8249C9.89392 15.0437 10.1907 15.1666 10.5001 15.1666H12.8334V17.4999C12.8334 17.8093 12.9563 18.1061 13.1751 18.3249C13.3939 18.5437 13.6907 18.6666 14.0001 18.6666C14.3095 18.6666 14.6063 18.5437 14.825 18.3249C15.0438 18.1061 15.1668 17.8093 15.1668 17.4999V15.1666H17.5001C17.8095 15.1666 18.1063 15.0437 18.325 14.8249C18.5438 14.6061 18.6668 14.3093 18.6668 13.9999C18.6668 13.6905 18.5438 13.3938 18.325 13.175C18.1063 12.9562 17.8095 12.8333 17.5001 12.8333Z" fill="#5D78FF"/>
</svg>
