<svg width="25" height="24" viewBox="0 0 25 24" fill="none" xmlns="http://www.w3.org/2000/svg">
<g clip-path="url(#clip0_9209_9016)">
<path d="M14.75 14H10.75V21H14.75V14Z" fill="#5D78FF"/>
<path d="M21.17 10.1799L13.46 2.29995C13.367 2.20622 13.2564 2.13183 13.1346 2.08106C13.0127 2.03029 12.882 2.00415 12.75 2.00415C12.618 2.00415 12.4873 2.03029 12.3654 2.08106C12.2436 2.13183 12.133 2.20622 12.04 2.29995L4.32999 10.1899C4.14343 10.378 3.99609 10.6013 3.89652 10.8468C3.79695 11.0922 3.74715 11.3551 3.74999 11.6199V19.9999C3.74922 20.5119 3.94477 21.0046 4.29637 21.3766C4.64797 21.7487 5.12885 21.9718 5.63999 21.9999H8.74999V12.9999C8.74999 12.7347 8.85535 12.4804 9.04289 12.2928C9.23042 12.1053 9.48478 11.9999 9.74999 11.9999H15.75C16.0152 11.9999 16.2696 12.1053 16.4571 12.2928C16.6446 12.4804 16.75 12.7347 16.75 12.9999V21.9999H19.86C20.3711 21.9718 20.852 21.7487 21.2036 21.3766C21.5552 21.0046 21.7508 20.5119 21.75 19.9999V11.6199C21.7508 11.0829 21.5428 10.5665 21.17 10.1799Z" fill="#5D78FF"/>
</g>
<defs>
<clipPath id="clip0_9209_9016">
<rect width="24" height="24" fill="white" transform="translate(0.75)"/>
</clipPath>
</defs>
</svg>
