<svg width="25" height="24" viewBox="0 0 25 24" fill="none" xmlns="http://www.w3.org/2000/svg">
<path d="M14.4166 3.11268L14.4166 3.1127L14.4204 3.11598L20.4166 8.37269C20.4172 8.37321 20.4178 8.37374 20.4184 8.37426C20.6812 8.60977 20.8912 8.89826 21.0345 9.22076C21.1782 9.54397 21.2516 9.89399 21.25 10.2477V10.25V19C21.25 19.663 20.9866 20.2989 20.5177 20.7678C20.0489 21.2366 19.413 21.5 18.75 21.5H6.74997C6.08693 21.5 5.45105 21.2366 4.98221 20.7678C4.51336 20.2989 4.24997 19.663 4.24997 19V10.26H4.24999L4.24996 10.256C4.24713 9.90093 4.31999 9.54931 4.46368 9.22457C4.60706 8.90055 4.81766 8.61071 5.08153 8.37427L11.0796 3.11598L11.0796 3.116L11.0833 3.11268C11.5417 2.70272 12.135 2.47607 12.75 2.47607C13.3649 2.47607 13.9583 2.70272 14.4166 3.11268ZM14.75 20.5H15.25V20V15C15.25 14.6022 15.0919 14.2207 14.8106 13.9393C14.5293 13.658 14.1478 13.5 13.75 13.5H11.75C11.3521 13.5 10.9706 13.658 10.6893 13.9393C10.408 14.2207 10.25 14.6022 10.25 15V20V20.5H10.75H14.75ZM16.25 20V20.5H16.75H18.75C19.1478 20.5 19.5293 20.342 19.8106 20.0607C20.0919 19.7794 20.25 19.3978 20.25 19V10.25V10.2494C20.2497 10.0364 20.2041 9.82591 20.1161 9.63194C20.0282 9.43797 19.9 9.26494 19.74 9.12437L19.7392 9.12372L13.74 3.87437C13.7398 3.87425 13.7397 3.87413 13.7396 3.87401C13.4659 3.63376 13.1142 3.50127 12.75 3.50127C12.3858 3.50127 12.0341 3.63376 11.7604 3.87401C11.7602 3.87413 11.7601 3.87425 11.76 3.87437L5.76072 9.12372L5.75997 9.12437C5.59997 9.26494 5.47173 9.43796 5.3838 9.63194C5.29586 9.82592 5.25024 10.0364 5.24997 10.2494V10.25V19C5.24997 19.3978 5.40801 19.7794 5.68931 20.0607C5.97062 20.342 6.35215 20.5 6.74997 20.5H8.74997H9.24997V20V15C9.24997 14.337 9.51336 13.7011 9.98221 13.2322C10.451 12.7634 11.0869 12.5 11.75 12.5H13.75C14.413 12.5 15.0489 12.7634 15.5177 13.2322C15.9866 13.7011 16.25 14.337 16.25 15V20Z" stroke="#434349"/>
</svg>
