<svg width="26" height="26" viewBox="0 0 26 26" fill="none" xmlns="http://www.w3.org/2000/svg">
<path d="M5.41663 19.5H10.01C10.1525 19.5008 10.2939 19.4735 10.4259 19.4196C10.5578 19.3657 10.6779 19.2863 10.7791 19.1858L18.2758 11.6783L21.3525 8.66668C21.454 8.56597 21.5346 8.44615 21.5896 8.31414C21.6446 8.18213 21.6729 8.04053 21.6729 7.89752C21.6729 7.7545 21.6446 7.6129 21.5896 7.48089C21.5346 7.34888 21.454 7.22906 21.3525 7.12835L16.7591 2.48085C16.6584 2.37931 16.5386 2.29872 16.4066 2.24372C16.2746 2.18872 16.133 2.1604 15.99 2.1604C15.8469 2.1604 15.7053 2.18872 15.5733 2.24372C15.4413 2.29872 15.3215 2.37931 15.2208 2.48085L12.1658 5.54668L4.64746 13.0542C4.54705 13.1554 4.46762 13.2755 4.41371 13.4075C4.3598 13.5394 4.33247 13.6808 4.33329 13.8233V18.4167C4.33329 18.704 4.44743 18.9796 4.65059 19.1827C4.85376 19.3859 5.12931 19.5 5.41663 19.5ZM15.99 4.77752L19.0558 7.84335L17.5175 9.38168L14.4516 6.31585L15.99 4.77752ZM6.49996 14.2675L12.9241 7.84335L15.99 10.9092L9.56579 17.3333H6.49996V14.2675ZM22.75 21.6667H3.24996C2.96264 21.6667 2.68709 21.7808 2.48393 21.984C2.28076 22.1871 2.16663 22.4627 2.16663 22.75C2.16663 23.0373 2.28076 23.3129 2.48393 23.516C2.68709 23.7192 2.96264 23.8333 3.24996 23.8333H22.75C23.0373 23.8333 23.3128 23.7192 23.516 23.516C23.7192 23.3129 23.8333 23.0373 23.8333 22.75C23.8333 22.4627 23.7192 22.1871 23.516 21.984C23.3128 21.7808 23.0373 21.6667 22.75 21.6667Z" fill="white"/>
</svg>
