<svg width="294" height="33" viewBox="0 0 294 33" fill="none" xmlns="http://www.w3.org/2000/svg">
    <path d="M18.667 18.637H22l1.333-5.333h-4.666v-2.667c0-1.373 0-2.667 2.666-2.667h2V3.49c-.434-.057-2.076-.186-3.809-.186-3.62 0-6.19 2.209-6.19 6.266v3.734h-4v5.333h4V29.97h5.333V18.637zM72.144 10.233a2.917 2.917 0 1 0 0-5.835 2.917 2.917 0 0 0 0 5.835zM77.816 12.444v16.185h5.025v-8.004c0-2.112.398-4.157 3.016-4.157 2.583 0 2.615 2.414 2.615 4.29v7.872H93.5v-8.876c0-4.36-.939-7.71-6.035-7.71-2.446 0-4.086 1.342-4.757 2.613h-.068v-2.213h-4.824zm-8.19 0h5.034v16.185h-5.033V12.444zM148.371 3.305c.973-.004 1.946.006 2.918.03l.259.009c.299.01.593.024.949.04 1.419.066 2.387.29 3.236.62.88.338 1.622.797 2.363 1.538a6.542 6.542 0 0 1 1.537 2.362c.33.849.554 1.818.62 3.237.016.355.03.65.04.95l.008.258c.024.972.034 1.945.031 2.917l.001.995v1.747c.004.973-.007 1.946-.03 2.918l-.008.259c-.011.299-.024.593-.04.95-.067 1.418-.294 2.386-.622 3.235a6.498 6.498 0 0 1-1.537 2.363 6.556 6.556 0 0 1-2.363 1.537c-.849.33-1.817.554-3.236.62-.356.016-.65.03-.949.04l-.259.008c-.972.024-1.945.034-2.918.031l-.995.001h-1.745c-.973.004-1.946-.007-2.919-.03l-.259-.008a83.612 83.612 0 0 1-.949-.04c-1.419-.067-2.387-.294-3.237-.622a6.524 6.524 0 0 1-2.362-1.537 6.545 6.545 0 0 1-1.538-2.363c-.33-.849-.554-1.817-.62-3.236a75.22 75.22 0 0 1-.04-.949l-.007-.259c-.025-.972-.036-1.945-.033-2.918v-2.742c-.004-.972.006-1.945.029-2.917l.009-.259c.011-.298.024-.594.04-.949.067-1.42.291-2.387.62-3.237a6.507 6.507 0 0 1 1.542-2.36 6.522 6.522 0 0 1 2.36-1.54c.85-.33 1.817-.554 3.237-.62l.949-.04.259-.007c.972-.025 1.945-.036 2.917-.033l2.742.001zM147 9.972a6.67 6.67 0 0 0-6.244 4.093A6.666 6.666 0 0 0 147 23.304a6.666 6.666 0 1 0 0-13.332zm0 2.666a4 4 0 1 1 .001 7.999 3.998 3.998 0 0 1-2.828-6.828 3.998 3.998 0 0 1 2.828-1.172l-.001.001zm7-4.666a1.666 1.666 0 0 0 0 3.33 1.669 1.669 0 0 0 1.667-1.666A1.669 1.669 0 0 0 154 7.969v.003z" fill="#5D78FF"/>
    <path fill-rule="evenodd" clip-rule="evenodd" d="M209.803 5.626a11.333 11.333 0 0 1 13.708 13.708 6.002 6.002 0 0 1-4.403 9.273 5.998 5.998 0 0 1-3.909-.96 11.334 11.334 0 0 1-13.71-13.707 6.002 6.002 0 0 1 4.403-9.273c1.375-.14 2.756.2 3.909.96h.002zm4.702 10.04c.499.15.974.367 1.41.648.446.294.82.688 1.088 1.15.278.512.42 1.086.409 1.669.023.751-.2 1.49-.637 2.101a4.052 4.052 0 0 1-1.816 1.39 6.229 6.229 0 0 1-2.46.44 6.135 6.135 0 0 1-2.862-.618 4.115 4.115 0 0 1-1.464-1.294 3.21 3.21 0 0 1-.606-1.79 1.094 1.094 0 0 1 1.091-1.091 1.094 1.094 0 0 1 1.091 1.091c.022.2.099.39.22.55.174.249.404.453.672.596.58.272 1.218.4 1.858.376a4.131 4.131 0 0 0 1.622-.276c.347-.124.651-.347.875-.638a1.25 1.25 0 0 0 .233-.8 1.3 1.3 0 0 0-.128-.637 1.222 1.222 0 0 0-.396-.401 3.275 3.275 0 0 0-.832-.376c-.24-.072-.5-.143-.77-.214l-.02-.002a15.32 15.32 0 0 0-.602-.145 13.877 13.877 0 0 1-1.025-.251.03.03 0 0 1-.013-.008l-.011-.006a11.71 11.71 0 0 1-1.427-.445 3.827 3.827 0 0 1-1.568-1.17 3.1 3.1 0 0 1-.633-1.955c0-.707.232-1.396.66-1.96.445-.568 1.041-1 1.72-1.246.75-.27 1.543-.4 2.34-.384a6.31 6.31 0 0 1 1.853.258c.52.152 1.008.4 1.439.73.373.283.683.638.913 1.046a1.088 1.088 0 0 1-.444 1.477 1.086 1.086 0 0 1-.83.084 1.092 1.092 0 0 1-.647-.528 1.327 1.327 0 0 0-.355-.373 2.26 2.26 0 0 0-.724-.352 4.125 4.125 0 0 0-1.206-.16 4.376 4.376 0 0 0-1.551.236c-.297.1-.56.28-.764.52a1.057 1.057 0 0 0-.224.65c-.018.22.044.44.175.618.178.217.41.386.672.488.509.194 1.033.349 1.566.46.448.1.81.188 1.116.272.348.086.687.177.992.27z" fill="#5D78FF"/>
    <path d="M291.333 8.365a10.92 10.92 0 0 1-3.142.861 5.484 5.484 0 0 0 2.406-3.026 10.924 10.924 0 0 1-3.474 1.328 5.475 5.475 0 0 0-9.323 4.99 15.532 15.532 0 0 1-11.275-5.716 5.477 5.477 0 0 0 1.694 7.304 5.444 5.444 0 0 1-2.48-.684v.07a5.472 5.472 0 0 0 4.389 5.364 5.555 5.555 0 0 1-2.472.095 5.476 5.476 0 0 0 5.109 3.8 11.014 11.014 0 0 1-8.098 2.262 15.48 15.48 0 0 0 8.386 2.459 15.462 15.462 0 0 0 14.407-9.592 15.46 15.46 0 0 0 1.156-5.972c0-.238-.006-.473-.017-.707a11.158 11.158 0 0 0 2.734-2.836z" fill="#5D78FF"/>
</svg>
