<svg width="32" height="33" viewBox="0 0 32 33" fill="none" xmlns="http://www.w3.org/2000/svg">
    <path d="M17.37 3.305c.974-.004 1.947.006 2.92.03l.258.009c.299.01.593.024.95.04 1.418.066 2.386.29 3.235.62.88.338 1.622.797 2.363 1.538a6.544 6.544 0 0 1 1.537 2.362c.33.849.554 1.818.62 3.237.016.355.03.65.04.95l.008.258c.024.972.034 1.945.031 2.917l.001.995v1.747c.004.973-.007 1.946-.03 2.918l-.008.259c-.011.299-.024.593-.04.95-.067 1.418-.294 2.386-.622 3.235a6.512 6.512 0 0 1-1.537 2.363 6.554 6.554 0 0 1-2.363 1.537c-.849.33-1.817.554-3.236.62-.356.016-.65.03-.949.04l-.259.008c-.972.024-1.945.034-2.918.031l-.995.001h-1.745c-.973.004-1.946-.007-2.919-.03l-.259-.008a83.567 83.567 0 0 1-.949-.04c-1.419-.067-2.387-.294-3.237-.622a6.52 6.52 0 0 1-2.362-1.537 6.539 6.539 0 0 1-1.538-2.363c-.33-.849-.554-1.817-.62-3.236a99.265 99.265 0 0 1-.04-.949l-.007-.259c-.025-.972-.036-1.945-.033-2.918v-2.742c-.004-.972.006-1.945.029-2.917l.01-.259c.01-.298.023-.594.04-.949.066-1.42.29-2.387.62-3.237a6.507 6.507 0 0 1 1.54-2.36 6.53 6.53 0 0 1 2.36-1.54c.851-.33 1.818-.554 3.238-.62l.95-.04.258-.007c.972-.025 1.945-.036 2.917-.033l2.742.001zM16 9.972a6.666 6.666 0 1 0 0 13.332 6.666 6.666 0 1 0 0-13.332zm0 2.666a4 4 0 1 1 .001 7.999 4 4 0 1 1 0-8l-.001.001zm7-4.666a1.667 1.667 0 0 0 0 3.33 1.667 1.667 0 0 0 0-3.333v.003z" fill="#5D78FF"/>
</svg>
