<svg width="115" height="45" viewBox="0 0 115 45" fill="none" xmlns="http://www.w3.org/2000/svg">
    <g filter="url(#p10vi9j4ha)">
        <path d="M40.489 39.53V2.688h12.207V39.53H40.489zM80.64 39.633V2.793h30.379v8.616H92.848v5.246h15.367v8.617H92.848v5.769h18.88v8.592H80.641z" fill="#04ACF7"/>
        <path d="M74.177 13.378a3.325 3.325 0 0 0-.618-1.548 3.496 3.496 0 0 0-1.125-.95c-.893-.45-1.946-.674-3.16-.674-1.366 0-2.356.183-2.97.549-.613.366-.92.882-.922 1.548 0 .699.308 1.27.923 1.711.615.442 1.423.83 2.426 1.161 1.003.333 2.144.646 3.425.937 1.28.29 2.59.624 3.93 1 1.34.374 2.657.829 3.942 1.36 1.243.505 2.401 1.192 3.437 2.037a9.541 9.541 0 0 1 2.427 3.01c.615 1.182.922 2.613.922 4.295 0 2.131-.43 3.992-1.289 5.582a11.15 11.15 0 0 1-3.595 3.96c-1.542 1.05-3.378 1.838-5.51 2.363-2.13.526-4.477.788-7.038.788-2.46 0-4.694-.328-6.699-.986-2.005-.657-3.723-1.548-5.155-2.672a12.431 12.431 0 0 1-3.355-3.934 10.887 10.887 0 0 1-1.302-4.746H64.55c.268 1.333.942 2.308 2.02 2.927a5.35 5.35 0 0 0 1.657.698 7.72 7.72 0 0 0 1.832.225c1.518 0 2.74-.233 3.665-.7.924-.466 1.388-1.142 1.39-2.025 0-.7-.308-1.267-.923-1.7-.616-.433-1.425-.811-2.426-1.135a34.639 34.639 0 0 0-3.437-.9c-1.29-.275-2.605-.6-3.944-.975a32.78 32.78 0 0 1-3.93-1.374 13.178 13.178 0 0 1-3.424-2.086A9.729 9.729 0 0 1 54.6 18c-.615-1.233-.922-2.731-.922-4.496 0-1.963.404-3.679 1.213-5.145a10.61 10.61 0 0 1 3.375-3.671c1.442-.983 3.148-1.72 5.117-2.21a26.644 26.644 0 0 1 6.445-.738c2.594 0 4.844.304 6.748.912 1.905.607 3.5 1.436 4.783 2.485a11.352 11.352 0 0 1 3.017 3.695 14.223 14.223 0 0 1 1.403 4.546l-11.6.001z" fill="url(#tqtpv0xhlb)"/>
        <path d="M74.177 13.378a3.325 3.325 0 0 0-.618-1.548 3.496 3.496 0 0 0-1.125-.95c-.893-.45-1.946-.674-3.16-.674-1.366 0-2.356.183-2.97.549-.613.366-.92.882-.922 1.548 0 .699.308 1.27.923 1.711.615.442 1.423.83 2.426 1.161 1.003.333 2.144.646 3.425.937 1.28.29 2.59.624 3.93 1a34.9 34.9 0 0 1 3.942 1.36c1.243.505 2.401 1.192 3.437 2.037a9.541 9.541 0 0 1 2.427 3.01c.615 1.182.922 2.613.922 4.295 0 2.131-.43 3.992-1.289 5.582a11.15 11.15 0 0 1-3.595 3.96c-1.542 1.05-3.378 1.838-5.51 2.363-2.13.526-4.477.788-7.038.788-2.46 0-4.694-.328-6.699-.986-2.005-.657-3.723-1.548-5.155-2.672a12.431 12.431 0 0 1-3.355-3.934 10.887 10.887 0 0 1-1.302-4.746H64.55c.268 1.333.942 2.308 2.02 2.927a5.35 5.35 0 0 0 1.657.698 7.72 7.72 0 0 0 1.832.225c1.518 0 2.74-.233 3.665-.7.924-.466 1.388-1.142 1.39-2.025 0-.7-.308-1.267-.923-1.7-.616-.433-1.425-.811-2.426-1.135a34.639 34.639 0 0 0-3.437-.9c-1.29-.275-2.605-.6-3.944-.975a32.78 32.78 0 0 1-3.93-1.374 13.178 13.178 0 0 1-3.424-2.086A9.729 9.729 0 0 1 54.6 18c-.615-1.233-.922-2.731-.922-4.496 0-1.963.404-3.679 1.213-5.145a10.61 10.61 0 0 1 3.375-3.671c1.442-.983 3.148-1.72 5.117-2.21a26.644 26.644 0 0 1 6.445-.738c2.594 0 4.844.304 6.748.912 1.905.607 3.5 1.436 4.783 2.485a11.352 11.352 0 0 1 3.017 3.695 14.223 14.223 0 0 1 1.403 4.546l-11.6.001z" stroke="url(#sug62fl8uc)" stroke-miterlimit="10"/>
        <path d="M40.207 25.661c-1.095 4.376-3.41 7.916-6.947 10.62-3.5 2.688-7.537 4.032-12.114 4.032-5.508 0-10.193-1.868-14.057-5.605-3.88-3.751-5.821-8.348-5.821-13.791 0-5.426 1.924-10.007 5.771-13.744 3.833-3.688 8.502-5.531 14.008-5.531 7.165 0 12.696 2.917 16.593 8.752 1.36 2.016 2.214 4.048 2.562 6.096H30.107c-1.675-4.326-4.71-6.49-9.103-6.49-2.969 0-5.415 1.09-7.34 3.27-1.84 2.101-2.76 4.633-2.76 7.597 0 3.001.92 5.566 2.76 7.695 1.941 2.262 4.404 3.392 7.39 3.392 4.113 0 7.131-2.097 9.055-6.293h10.098z" fill="#04ACF7"/>
        <path d="M97.93 34.682c-.1-.12-.243-.18-.428-.18-.254 0-.427.096-.519.285-.052.11-.084.283-.093.522h-.812c.014-.362.08-.654.196-.876.223-.424.619-.636 1.187-.636.45 0 .807.125 1.072.375.266.248.399.577.399.987 0 .315-.094.594-.282.838-.123.162-.325.343-.606.542l-.334.237a7.217 7.217 0 0 0-.43.323.962.962 0 0 0-.194.231h1.854v.735h-2.909c.008-.304.073-.583.197-.834.119-.284.4-.584.843-.9.385-.275.634-.473.747-.592a.875.875 0 0 0 .261-.61c0-.179-.05-.328-.15-.447zm2.906 3.489c-.541 0-.921-.19-1.14-.569-.216-.378-.325-.918-.325-1.62 0-.7.109-1.242.325-1.623.219-.38.599-.57 1.14-.57.541 0 .921.19 1.14.57.216.381.325.922.325 1.623 0 .702-.11 1.242-.328 1.62-.217.38-.596.569-1.137.569zm.489-1.07c.076-.257.114-.63.114-1.119 0-.511-.039-.89-.117-1.136-.076-.246-.238-.37-.486-.37s-.412.124-.492.37c-.08.246-.12.625-.12 1.136 0 .489.04.863.12 1.123.08.257.244.386.492.386s.411-.13.489-.39zm3.284-2.42c-.099-.118-.242-.178-.427-.178-.254 0-.427.095-.519.284-.053.11-.084.283-.094.522h-.811c.013-.362.079-.654.196-.876.223-.424.618-.636 1.187-.636.449 0 .806.125 1.072.375.266.248.398.577.398.987 0 .315-.093.594-.281.838-.123.162-.325.343-.606.542l-.334.237a7.219 7.219 0 0 0-.431.323.946.946 0 0 0-.193.231h1.854v.735h-2.909c.008-.304.073-.583.196-.834.119-.284.401-.584.844-.9.385-.275.634-.473.747-.592a.874.874 0 0 0 .261-.61c0-.179-.05-.328-.15-.447zm2.403-.017c-.094.125-.139.292-.135.501h-.779c.007-.21.044-.411.108-.6.068-.167.176-.32.322-.46.11-.1.24-.176.39-.229.15-.053.335-.08.554-.08.406 0 .733.106.981.317.25.21.375.49.375.844 0 .25-.074.461-.223.633a.752.752 0 0 1-.293.22c.077 0 .186.065.329.196.213.197.319.467.319.809 0 .359-.125.675-.375.949-.248.271-.616.407-1.105.407-.601 0-1.019-.196-1.253-.589-.123-.209-.192-.482-.206-.82h.821c0 .17.027.31.082.422.101.205.286.307.554.307a.61.61 0 0 0 .427-.167c.123-.113.185-.275.185-.486 0-.28-.113-.466-.34-.56-.129-.052-.332-.079-.609-.079v-.597c.271-.004.461-.03.568-.08.186-.082.278-.248.278-.498a.556.556 0 0 0-.143-.395c-.094-.102-.227-.152-.399-.152-.197 0-.341.062-.433.187z" fill="url(#nksdfx8cqd)"/>
        <path d="m96.983 34.787-.09-.044.09.044zm-.093.522v.1h.096l.004-.096-.1-.004zm-.812 0-.1-.004-.004.104h.104v-.1zm.196-.876.089.046-.089-.046zm2.26-.261-.07.073h.001l.068-.073zm.116 1.825-.079-.06.08.06zm-.606.542-.058-.081.058.081zm-.334.237.058.082-.058-.082zm-.43.323-.066-.077v.001l.065.076zm-.194.231L97 37.28l-.09.151h.176v-.1zm1.854 0h.1v-.1h-.1v.1zm0 .735v.1h.1v-.1h-.1zm-2.909 0-.1-.002-.002.102h.102v-.1zm.197-.834.09.043.002-.005-.092-.038zm.843-.9.058.081-.058-.08zm.747-.592.073.07v-.001l-.073-.069zm.188-1.121c-.122-.147-.295-.215-.504-.215v.2c.162 0 .274.05.351.143l.153-.129zm-.504-.215a.757.757 0 0 0-.368.083.567.567 0 0 0-.24.258l.18.087a.368.368 0 0 1 .156-.17.56.56 0 0 1 .272-.058v-.2zm-.609.34c-.062.13-.093.32-.103.561l.2.009c.01-.236.04-.392.084-.483l-.18-.086zm-.003.466h-.812v.2h.812v-.2zm-.712.103c.013-.352.077-.628.185-.833l-.177-.093c-.127.24-.194.549-.208.919l.2.007zm.185-.833c.202-.384.558-.582 1.098-.582v-.2c-.597 0-1.032.226-1.275.69l.177.092zm1.098-.582c.43 0 .76.119 1.004.348l.137-.146c-.288-.271-.673-.402-1.141-.402v.2zm1.004.348c.243.227.367.528.367.914h.2c0-.434-.142-.79-.43-1.06l-.137.146zm.367.914c0 .293-.087.55-.26.777l.158.122c.2-.262.302-.563.302-.899h-.2zm-.261.778c-.114.15-.307.324-.585.52l.116.164c.284-.202.496-.39.628-.564l-.16-.12zm-.585.52-.334.238.116.163.334-.237-.116-.163zm-.334.238a7.373 7.373 0 0 0-.438.327l.13.153c.075-.063.215-.169.424-.317l-.116-.163zm-.438.328a1.058 1.058 0 0 0-.214.256l.172.102a.86.86 0 0 1 .173-.207l-.131-.15zm-.128.407h1.854v-.2h-1.854v.2zm1.754-.1v.735h.2v-.735h-.2zm.1.635h-2.909v.2h2.91v-.2zm-2.809.103c.008-.292.07-.556.186-.794l-.18-.087c-.13.266-.198.558-.206.876l.2.005zm.189-.799c.108-.257.371-.544.81-.856l-.117-.163c-.448.32-.748.633-.878.942l.185.077zm.81-.857c.383-.274.64-.477.76-.604l-.144-.138c-.106.111-.347.304-.733.58l.116.162zm.761-.604a.974.974 0 0 0 .288-.678h-.2a.775.775 0 0 1-.234.54l.146.138zm.288-.678c0-.2-.056-.373-.173-.513l-.153.129a.576.576 0 0 1 .126.384h.2zm1.517 2.472-.087.05.087-.05zm0-3.243-.086-.05.086.05zm2.28 0 .086-.05-.086.05zm-.003 3.243-.087-.05.087.05zm-.648-.5.096.028-.096-.028zm-.003-2.256-.095.03.095-.03zm-.978 2.259-.096.029.096-.03zm.492.966c-.515 0-.857-.178-1.053-.518l-.173.1c.24.417.659.618 1.226.618v-.2zm-1.053-.518c-.204-.357-.312-.877-.312-1.57h-.2c0 .709.11 1.269.338 1.67l.174-.1zm-.312-1.57c0-.694.108-1.215.312-1.574l-.174-.1c-.229.403-.338.964-.338 1.673h.2zm.312-1.574c.197-.342.538-.52 1.053-.52v-.2c-.567 0-.986.201-1.226.62l.173.1zm1.053-.52c.515 0 .856.178 1.053.52l.173-.1c-.241-.419-.659-.62-1.226-.62v.2zm1.053.52c.204.36.312.88.312 1.573h.2c0-.709-.109-1.27-.339-1.672l-.173.099zm.312 1.573c0 .694-.109 1.213-.315 1.57l.173.1c.232-.4.342-.96.342-1.67h-.2zm-.315 1.57c-.195.34-.535.519-1.05.519v.2c.567 0 .984-.2 1.223-.619l-.173-.1zm-.465-.422c.08-.272.118-.656.118-1.148h-.2c0 .486-.038.847-.11 1.091l.192.057zm.118-1.148c0-.514-.038-.905-.121-1.167l-.191.061c.073.23.112.597.112 1.106h.2zm-.121-1.166a.632.632 0 0 0-.214-.327.593.593 0 0 0-.368-.112v.2c.107 0 .187.026.247.072.061.045.11.118.144.226l.191-.059zm-.582-.44a.6.6 0 0 0-.369.113.634.634 0 0 0-.218.326l.19.062a.44.44 0 0 1 .148-.228.4.4 0 0 1 .249-.072v-.2zm-.587.439c-.085.261-.125.653-.125 1.167h.2c0-.509.04-.875.115-1.105l-.19-.062zm-.125 1.167c0 .492.04.878.124 1.152l.191-.059c-.075-.245-.115-.608-.115-1.093h-.2zm.124 1.152a.676.676 0 0 0 .217.34c.103.08.229.117.371.117v-.2a.384.384 0 0 1-.247-.075.475.475 0 0 1-.15-.241l-.191.06zm.588.457a.581.581 0 0 0 .371-.119.672.672 0 0 0 .214-.342l-.192-.057a.475.475 0 0 1-.147.243.38.38 0 0 1-.246.075v.2zm2.827-2.804-.09-.044.09.044zm-.094.522v.1h.096l.004-.096-.1-.004zm-.811 0-.1-.004-.004.104h.104v-.1zm.196-.876.089.046-.089-.046zm2.259-.261-.069.073h.001l.068-.073zm.117 1.825-.079-.06h-.001l.08.06zm-.606.542-.058-.081.058.081zm-.334.237.058.082-.058-.082zm-.431.323-.065-.077-.001.001.066.076zm-.193.231-.086-.051-.091.151h.177v-.1zm1.854 0h.1v-.1h-.1v.1zm0 .735v.1h.1v-.1h-.1zm-2.909 0-.1-.002-.003.102h.103v-.1zm.196-.834.09.043.002-.005-.092-.038zm.844-.9.058.081-.058-.08zm.747-.592.073.07v-.001l-.073-.069zm.188-1.121c-.122-.147-.296-.215-.504-.215v.2c.162 0 .274.05.351.143l.153-.129zm-.504-.215a.754.754 0 0 0-.368.083.567.567 0 0 0-.241.258l.18.087a.371.371 0 0 1 .157-.17.56.56 0 0 1 .272-.058v-.2zm-.609.34c-.062.13-.094.32-.104.561l.2.009c.01-.236.041-.392.084-.483l-.18-.086zm-.004.466h-.811v.2h.811v-.2zm-.711.103c.013-.352.077-.628.185-.833l-.177-.093c-.127.24-.194.549-.208.919l.2.007zm.185-.833c.201-.384.558-.582 1.098-.582v-.2c-.598 0-1.032.226-1.275.69l.177.092zm1.098-.582c.43 0 .76.119 1.003.348l.137-.146c-.288-.271-.672-.402-1.14-.402v.2zm1.004.348c.242.227.366.528.366.914h.2c0-.434-.141-.79-.43-1.06l-.136.146zm.366.914c0 .293-.086.55-.26.777l.158.122c.202-.262.302-.563.302-.899h-.2zm-.261.778c-.114.15-.306.324-.584.52l.115.164c.285-.202.497-.39.629-.564l-.16-.12zm-.584.52-.334.238.116.163.334-.237-.116-.163zm-.334.238a7.42 7.42 0 0 0-.438.327l.13.153a6.77 6.77 0 0 1 .424-.317l-.116-.163zm-.439.328a1.06 1.06 0 0 0-.213.256l.171.102a.88.88 0 0 1 .174-.207l-.132-.15zm-.127.407h1.854v-.2h-1.854v.2zm1.754-.1v.735h.2v-.735h-.2zm.1.635h-2.909v.2h2.909v-.2zm-2.809.103c.007-.292.07-.556.186-.794l-.18-.087c-.13.266-.198.558-.206.876l.2.005zm.188-.799c.109-.257.372-.544.81-.856l-.116-.163c-.448.32-.748.633-.878.942l.184.077zm.81-.857c.384-.274.641-.477.762-.604l-.145-.138c-.106.111-.347.304-.733.58l.116.162zm.762-.604a.976.976 0 0 0 .288-.678h-.2a.777.777 0 0 1-.234.54l.146.138zm.288-.678c0-.2-.056-.373-.173-.513l-.153.129a.577.577 0 0 1 .126.384h.2zm2.153-.466.08.06-.08-.06zm-.135.501v.1h.102l-.002-.102-.1.002zm-.779 0-.1-.004-.004.104h.104v-.1zm.108-.6-.093-.039-.002.006.095.033zm.322-.46-.067-.074-.002.001.069.073zm1.925.008-.065.077h.001l.064-.077zm.152 1.477.076.066-.076-.066zm-.293.22-.035-.094.035.194v-.1zm.329.196.068-.074h-.001l-.067.074zm-.056 1.758-.074-.068.074.068zm-2.358-.182-.087.05.001.001.086-.051zm-.206-.82v-.1h-.104l.005.104.099-.004zm.821 0h.1v-.1h-.1v.1zm.082.422-.09.044.09-.044zm.981.14.068.074-.068-.074zm-.155-1.046.038-.092-.038.092zm-.609-.079h-.1v.1h.1v-.1zm0-.597-.002-.1-.098.001v.099h.1zm.568-.08-.04-.091h-.001l.041.092zm.135-.893-.074.068h.001l.073-.068zm-.912-.025c-.111.148-.159.34-.155.563l.2-.004c-.004-.194.038-.337.115-.439l-.16-.12zm-.055.461h-.779v.2h.779v-.2zm-.679.104c.007-.202.042-.393.103-.572l-.19-.065c-.067.2-.105.41-.113.63l.2.007zm.101-.566c.062-.152.161-.294.299-.426l-.139-.145a1.447 1.447 0 0 0-.345.494l.185.076zm.297-.425c.098-.09.216-.159.355-.208l-.066-.188c-.162.056-.304.14-.424.249l.135.147zm.355-.208a1.59 1.59 0 0 1 .521-.073v-.2c-.226 0-.423.027-.587.085l.066.188zm.521-.073c.388 0 .691.1.916.293l.13-.153c-.27-.23-.622-.34-1.046-.34v.2zm.917.293c.225.188.339.44.339.767h.2c0-.38-.136-.69-.411-.92l-.128.153zm.339.767a.835.835 0 0 1-.198.568l.151.13c.166-.192.247-.427.247-.698h-.2zm-.198.567a.662.662 0 0 1-.253.192l.071.187a.857.857 0 0 0 .333-.247l-.151-.132zm-.218.386c.012 0 .04.006.088.035.047.027.104.072.173.135l.135-.148a1.298 1.298 0 0 0-.205-.16.383.383 0 0 0-.191-.062v.2zm.261.17c.188.174.287.415.287.735h.2c0-.365-.114-.663-.351-.883l-.136.147zm.287.735c0 .333-.115.626-.349.881l.148.135c.266-.291.401-.631.401-1.017h-.2zm-.349.881c-.223.245-.561.375-1.031.375v.2c.507 0 .906-.142 1.179-.44l-.148-.135zm-1.031.375c-.579 0-.957-.187-1.168-.54l-.171.102c.258.433.715.638 1.339.638v-.2zm-1.167-.54c-.112-.19-.178-.446-.192-.773l-.199.008c.014.348.084.64.218.867l.173-.102zm-.292-.67h.821v-.2h-.821v.2zm.721-.1c0 .18.029.337.092.467l.18-.089a.856.856 0 0 1-.072-.377h-.2zm.092.467c.059.12.144.212.256.274.11.061.241.09.388.09v-.2a.59.59 0 0 1-.291-.065.422.422 0 0 1-.174-.188l-.179.089zm.644.363a.711.711 0 0 0 .495-.193l-.135-.147a.513.513 0 0 1-.36.14v.2zm.495-.193c.149-.137.217-.329.217-.56h-.2c0 .19-.055.323-.152.413l.135.147zm.217-.56a.757.757 0 0 0-.1-.401.617.617 0 0 0-.302-.251l-.076.185c.096.04.163.097.207.17a.562.562 0 0 1 .071.297h.2zm-.402-.652c-.148-.06-.367-.087-.647-.087v.2c.274 0 .461.027.571.072l.076-.185zm-.547.013v-.597h-.2v.597h.2zm-.099-.497c.272-.004.48-.03.608-.088l-.082-.183c-.087.04-.258.067-.529.07l.003.2zm.607-.088a.529.529 0 0 0 .256-.229.731.731 0 0 0 .082-.36h-.2c0 .113-.021.199-.057.263a.33.33 0 0 1-.161.143l.08.183zm.338-.59a.652.652 0 0 0-.17-.464l-.146.137c.075.08.116.186.116.327h.2zm-.17-.463c-.117-.127-.279-.184-.472-.184v.2c.152 0 .255.044.325.12l.147-.136zm-.472-.184c-.219 0-.398.07-.514.228l.161.118c.068-.092.178-.146.353-.146v-.2z" fill="url(#soaxo98iee)"/>
    </g>
    <defs>
        <linearGradient id="tqtpv0xhlb" x1="52.871" y1="21.121" x2="86.814" y2="21.121" gradientUnits="userSpaceOnUse">
            <stop stop-color="#C8992E"/>
            <stop offset=".15" stop-color="#B57E10"/>
            <stop offset=".43" stop-color="#F9DF7B"/>
            <stop offset=".59" stop-color="#FFF3A6"/>
            <stop offset=".73" stop-color="#F9DF7B"/>
            <stop offset=".93" stop-color="#B57E10"/>
            <stop offset=".94" stop-color="#B98416"/>
            <stop offset="1" stop-color="#CDA035"/>
        </linearGradient>
        <linearGradient id="sug62fl8uc" x1="52.812" y1="21.121" x2="86.871" y2="21.121" gradientUnits="userSpaceOnUse">
            <stop offset=".01" stop-color="#FBC926"/>
            <stop offset=".25" stop-color="#FFFBCC"/>
            <stop offset=".3" stop-color="#F8F0BB"/>
            <stop offset=".41" stop-color="#E7D28E"/>
            <stop offset=".55" stop-color="#CCA246"/>
            <stop offset=".6" stop-color="#C3922E"/>
            <stop offset=".87" stop-color="#EED688"/>
            <stop offset="1" stop-color="#FFFBCC"/>
        </linearGradient>
        <linearGradient id="nksdfx8cqd" x1="95.844" y1="35.849" x2="110.607" y2="35.849" gradientUnits="userSpaceOnUse">
            <stop stop-color="#C8992E"/>
            <stop offset=".15" stop-color="#B57E10"/>
            <stop offset=".43" stop-color="#F9DF7B"/>
            <stop offset=".59" stop-color="#FFF3A6"/>
            <stop offset=".73" stop-color="#F9DF7B"/>
            <stop offset=".93" stop-color="#B57E10"/>
            <stop offset=".94" stop-color="#B98416"/>
            <stop offset="1" stop-color="#CDA035"/>
        </linearGradient>
        <linearGradient id="soaxo98iee" x1="96.602" y1="35.849" x2="112.222" y2="35.849" gradientUnits="userSpaceOnUse">
            <stop stop-color="#C8992E"/>
            <stop offset=".15" stop-color="#B57E10"/>
            <stop offset=".43" stop-color="#F9DF7B"/>
            <stop offset=".59" stop-color="#FFF3A6"/>
            <stop offset=".73" stop-color="#F9DF7B"/>
            <stop offset=".93" stop-color="#B57E10"/>
            <stop offset=".94" stop-color="#B98416"/>
            <stop offset="1" stop-color="#CDA035"/>
        </linearGradient>
        <filter id="p10vi9j4ha" x="0" y="0" width="115" height="44.007" filterUnits="userSpaceOnUse" color-interpolation-filters="sRGB">
            <feFlood flood-opacity="0" result="BackgroundImageFix"/>
            <feColorMatrix in="SourceAlpha" values="0 0 0 0 0 0 0 0 0 0 0 0 0 0 0 0 0 0 127 0" result="hardAlpha"/>
            <feOffset dx="1" dy="1"/>
            <feGaussianBlur stdDeviation="1"/>
            <feComposite in2="hardAlpha" operator="out"/>
            <feColorMatrix values="0 0 0 0 0 0 0 0 0 0 0 0 0 0 0 0 0 0 0.5 0"/>
            <feBlend in2="BackgroundImageFix" result="effect1_dropShadow_1042_23311"/>
            <feBlend in="SourceGraphic" in2="effect1_dropShadow_1042_23311" result="shape"/>
        </filter>
    </defs>
</svg>
