<svg width="25" height="24" viewBox="0 0 25 24" fill="none" xmlns="http://www.w3.org/2000/svg">
<g clip-path="url(#clip0_9209_9044)">
<path d="M19.25 4H5.25C4.45435 4 3.69129 4.31607 3.12868 4.87868C2.56607 5.44129 2.25 6.20435 2.25 7V17C2.25 17.7956 2.56607 18.5587 3.12868 19.1213C3.69129 19.6839 4.45435 20 5.25 20H19.25C20.0456 20 20.8087 19.6839 21.3713 19.1213C21.9339 18.5587 22.25 17.7956 22.25 17V7C22.25 6.20435 21.9339 5.44129 21.3713 4.87868C20.8087 4.31607 20.0456 4 19.25 4V4ZM19.25 6L12.75 10.47C12.598 10.5578 12.4255 10.604 12.25 10.604C12.0745 10.604 11.902 10.5578 11.75 10.47L5.25 6H19.25Z" fill="#5D78FF"/>
</g>
<defs>
<clipPath id="clip0_9209_9044">
<rect width="24" height="24" fill="white" transform="translate(0.25)"/>
</clipPath>
</defs>
</svg>
