<svg width="25" height="24" viewBox="0 0 25 24" fill="none" xmlns="http://www.w3.org/2000/svg">
<path d="M7.52039 6.2313C7.52039 3.35499 9.87538 1 12.7517 1C15.628 1 17.983 3.35499 17.983 6.2313C17.983 9.10761 15.628 11.4626 12.7517 11.4626C9.87538 11.4626 7.52039 9.10761 7.52039 6.2313Z" stroke="#434349" stroke-width="2"/>
<path d="M22.4203 17.5919C22.2492 17.8769 22.0562 18.1526 21.8366 18.4381L21.8304 18.4462L21.8243 18.4545C21.4878 18.9111 21.094 19.3321 20.6705 19.7555C20.3211 20.1049 19.9215 20.4543 19.5265 20.7507C17.5524 22.2246 15.1783 23.0001 12.7245 23.0001C10.2769 23.0001 7.90865 22.2286 5.93755 20.7619C5.50083 20.407 5.11244 20.0895 4.77853 19.7556L4.76781 19.7449L4.75677 19.7345C4.33941 19.3417 3.97108 18.9246 3.62479 18.4546L3.62481 18.4546L3.61969 18.4477C3.42599 18.1895 3.22943 17.9152 3.06251 17.6462C3.18959 17.3768 3.34281 17.1041 3.50586 16.8686L3.51182 16.86L3.5176 16.8513C4.58302 15.2413 6.28767 14.1762 8.1804 13.9159L8.21052 13.9118L8.21989 13.9099C8.22279 13.9108 8.2259 13.912 8.22887 13.9134C8.23126 13.9145 8.23277 13.9154 8.23339 13.9158L8.23945 13.9203C9.55869 14.894 11.1285 15.3946 12.7517 15.3946C14.3712 15.3946 15.9376 14.8963 17.255 13.9269C17.2572 13.9262 17.2601 13.9255 17.2637 13.9247C17.2846 13.92 17.3142 13.9172 17.3467 13.9192C19.2236 14.1843 20.8983 15.2437 21.9914 16.8597L21.9914 16.8598L21.9975 16.8686C22.161 17.1048 22.304 17.3457 22.4203 17.5919Z" stroke="#434349" stroke-width="2"/>
</svg>
