<svg width="25" height="24" viewBox="0 0 25 24" fill="none" xmlns="http://www.w3.org/2000/svg">
<path d="M7.02039 6.2313C7.02039 3.07885 9.59924 0.5 12.7517 0.5C15.9041 0.5 18.483 3.07885 18.483 6.2313C18.483 9.38375 15.9041 11.9626 12.7517 11.9626C9.59924 11.9626 7.02039 9.38375 7.02039 6.2313Z" fill="#5D78FF" stroke="#5D78FF"/>
<path d="M22.9813 17.628L22.9838 17.6343C22.9826 17.6358 22.9813 17.6375 22.9798 17.6393L22.9516 17.6731L22.9298 17.7113C22.7264 18.0674 22.4952 18.4019 22.233 18.7429L22.2329 18.7428L22.2268 18.7511C21.868 19.2379 21.4534 19.6797 21.024 20.1091C20.6589 20.4742 20.2415 20.8394 19.8264 21.1507C17.7645 22.6905 15.2848 23.5001 12.7245 23.5001C10.1674 23.5001 7.69078 22.6926 5.63043 21.1566C5.19404 20.802 4.78227 20.4664 4.42498 20.1091L4.41962 20.1038L4.41409 20.0986C3.97412 19.6845 3.58586 19.2447 3.22225 18.7512L3.22226 18.7511L3.2197 18.7477C2.98162 18.4303 2.72823 18.0746 2.52752 17.7258C2.51429 17.6969 2.50969 17.6748 2.50874 17.6625C2.50863 17.661 2.50857 17.6598 2.50855 17.6589L2.51163 17.6527L2.51742 17.6392C2.66939 17.2845 2.87152 16.9065 3.09476 16.584L3.09485 16.5841L3.10063 16.5753C4.24558 14.8452 6.07749 13.7004 8.11229 13.4206L8.12735 13.4185L8.14226 13.4155C8.25954 13.3921 8.41628 13.4279 8.5333 13.5157L8.53329 13.5157L8.53637 13.518C9.76743 14.4266 11.2326 14.8946 12.7517 14.8946C14.2708 14.8946 15.7359 14.4266 16.967 13.518L16.967 13.518L16.9701 13.5157C17.0591 13.449 17.2188 13.4055 17.4011 13.422C19.4287 13.7037 21.2328 14.8458 22.4056 16.5796L22.4055 16.5796L22.4086 16.584C22.6372 16.9142 22.8349 17.262 22.9813 17.628Z" fill="#5D78FF" stroke="#5D78FF"/>
</svg>
