<svg width="300" height="300" viewBox="0 0 300 300" fill="none" xmlns="http://www.w3.org/2000/svg">
<path fill-rule="evenodd" clip-rule="evenodd" d="M280 10H200V0H280C291.046 0 300 8.95431 300 20V100H290V20C290 14.4772 285.523 10 280 10ZM10 100V20C10 14.4772 14.4772 10 20 10H100V0H20C8.95431 0 0 8.9543 0 20V100H10ZM0 110V280C0 291.046 8.9543 300 20 300H100V290H20C14.4772 290 10 285.523 10 280L10 200H4.37114e-06L3.93402e-06 190L0 110ZM290 200V280C290 285.523 285.523 290 280 290H200V300H280C291.046 300 300 291.046 300 280V200H290Z" fill="#5D78FF"/>
</svg>
