<svg width="33" height="33" viewBox="0 0 33 33" fill="none" xmlns="http://www.w3.org/2000/svg">
    <path fill-rule="evenodd" clip-rule="evenodd" d="M13.803 5.626A11.333 11.333 0 0 1 27.51 19.334a6 6 0 0 1-8.312 8.312A11.334 11.334 0 0 1 5.489 13.94a6 6 0 0 1 8.312-8.312l.002-.002zm4.702 10.04c.499.15.974.367 1.41.648.446.294.82.688 1.088 1.15.278.512.42 1.086.409 1.669.023.751-.2 1.49-.637 2.101a4.047 4.047 0 0 1-1.816 1.39 6.227 6.227 0 0 1-2.46.44 6.132 6.132 0 0 1-2.862-.618 4.118 4.118 0 0 1-1.464-1.294 3.208 3.208 0 0 1-.606-1.79 1.091 1.091 0 1 1 2.182 0c.022.2.099.39.22.55.174.249.404.453.672.596.58.272 1.218.4 1.858.376a4.134 4.134 0 0 0 1.622-.276c.347-.124.651-.347.875-.638.167-.232.249-.514.233-.8a1.31 1.31 0 0 0-.128-.637 1.23 1.23 0 0 0-.396-.401 3.29 3.29 0 0 0-.832-.376c-.24-.072-.5-.143-.77-.214l-.02-.002a15.518 15.518 0 0 0-.601-.145 13.895 13.895 0 0 1-1.026-.251.036.036 0 0 1-.013-.008.054.054 0 0 0-.011-.006c-.484-.117-.96-.266-1.427-.445a3.82 3.82 0 0 1-1.568-1.17 3.097 3.097 0 0 1-.633-1.955c0-.707.232-1.396.66-1.96a3.85 3.85 0 0 1 1.72-1.246c.75-.27 1.543-.4 2.34-.384a6.315 6.315 0 0 1 1.853.258c.52.152 1.008.4 1.439.73.373.283.683.638.913 1.046a1.09 1.09 0 1 1-1.921 1.033 1.332 1.332 0 0 0-.355-.373 2.27 2.27 0 0 0-.724-.352 4.13 4.13 0 0 0-1.206-.16 4.376 4.376 0 0 0-1.551.236c-.297.1-.56.28-.764.52a1.054 1.054 0 0 0-.224.65.92.92 0 0 0 .175.618c.178.217.41.386.672.488.509.194 1.033.349 1.566.46.448.1.81.188 1.116.272.348.086.687.177.992.27z" fill="#5D78FF"/>
</svg>
