<svg width="32" height="33" viewBox="0 0 32 33" fill="none" xmlns="http://www.w3.org/2000/svg">
    <path d="M29.333 8.365c-.998.443-2.058.733-3.142.861A5.487 5.487 0 0 0 28.597 6.2a10.929 10.929 0 0 1-3.474 1.328 5.474 5.474 0 0 0-9.323 4.99A15.534 15.534 0 0 1 4.525 6.802a5.476 5.476 0 0 0 1.694 7.304 5.446 5.446 0 0 1-2.48-.684v.07a5.473 5.473 0 0 0 4.389 5.364 5.551 5.551 0 0 1-2.472.095 5.477 5.477 0 0 0 5.11 3.8 11.015 11.015 0 0 1-8.1 2.262 15.481 15.481 0 0 0 8.387 2.459 15.457 15.457 0 0 0 15.563-15.564c0-.238-.006-.473-.017-.707a11.147 11.147 0 0 0 2.734-2.836z" fill="#5D78FF"/>
</svg>
